<mxfile host="app.diagrams.net" agent="Mozilla/5.0 (Windows NT 10.0; Win64; x64) AppleWebKit/537.36 (KHTML, like Gecko) Chrome/141.0.0.0 Safari/537.36" version="28.2.5">
  <diagram name="1 oldal" id="McODQ0Y31fDl9kgVNSAc">
    <mxGraphModel dx="2977" dy="1506" grid="1" gridSize="10" guides="1" tooltips="1" connect="1" arrows="1" fold="1" page="1" pageScale="1" pageWidth="827" pageHeight="1169" math="0" shadow="0">
      <root>
        <mxCell id="0" />
        <mxCell id="1" parent="0" />
        <mxCell id="ySjAWbqDDZqkr5jOYy7l-71" value="" style="rounded=0;whiteSpace=wrap;html=1;" vertex="1" parent="1">
          <mxGeometry x="10" y="30" width="2140" height="800" as="geometry" />
        </mxCell>
        <mxCell id="ySjAWbqDDZqkr5jOYy7l-6" value="" style="ellipse;whiteSpace=wrap;html=1;" vertex="1" parent="1">
          <mxGeometry x="235" y="325" width="130" height="90" as="geometry" />
        </mxCell>
        <mxCell id="ySjAWbqDDZqkr5jOYy7l-1" value="HZ60V1_kurzusfelvetel" style="ellipse;whiteSpace=wrap;html=1;" vertex="1" parent="1">
          <mxGeometry x="755" y="50" width="130" height="80" as="geometry" />
        </mxCell>
        <mxCell id="ySjAWbqDDZqkr5jOYy7l-3" value="hallgatÃ³" style="ellipse;whiteSpace=wrap;html=1;" vertex="1" parent="1">
          <mxGeometry x="240" y="180" width="120" height="80" as="geometry" />
        </mxCell>
        <mxCell id="ySjAWbqDDZqkr5jOYy7l-4" value="kurzusok" style="ellipse;whiteSpace=wrap;html=1;" vertex="1" parent="1">
          <mxGeometry x="1241" y="180" width="120" height="80" as="geometry" />
        </mxCell>
        <mxCell id="ySjAWbqDDZqkr5jOYy7l-5" value="hallgato" style="ellipse;whiteSpace=wrap;html=1;" vertex="1" parent="1">
          <mxGeometry x="240" y="330" width="120" height="80" as="geometry" />
        </mxCell>
        <mxCell id="ySjAWbqDDZqkr5jOYy7l-9" value="" style="ellipse;whiteSpace=wrap;html=1;" vertex="1" parent="1">
          <mxGeometry x="1235.5" y="340" width="130" height="90" as="geometry" />
        </mxCell>
        <mxCell id="ySjAWbqDDZqkr5jOYy7l-10" value="kurzus" style="ellipse;whiteSpace=wrap;html=1;" vertex="1" parent="1">
          <mxGeometry x="1240.5" y="345" width="120" height="80" as="geometry" />
        </mxCell>
        <mxCell id="ySjAWbqDDZqkr5jOYy7l-11" value="tanev" style="ellipse;whiteSpace=wrap;html=1;" vertex="1" parent="1">
          <mxGeometry x="620" y="180" width="120" height="80" as="geometry" />
        </mxCell>
        <mxCell id="ySjAWbqDDZqkr5jOYy7l-12" value="egyetem" style="ellipse;whiteSpace=wrap;html=1;" vertex="1" parent="1">
          <mxGeometry x="910" y="180" width="120" height="80" as="geometry" />
        </mxCell>
        <mxCell id="ySjAWbqDDZqkr5jOYy7l-13" value="szak" style="ellipse;whiteSpace=wrap;html=1;" vertex="1" parent="1">
          <mxGeometry x="400" y="500" width="120" height="80" as="geometry" />
        </mxCell>
        <mxCell id="ySjAWbqDDZqkr5jOYy7l-14" value="szulnev" style="ellipse;whiteSpace=wrap;html=1;" vertex="1" parent="1">
          <mxGeometry x="240" y="495" width="120" height="80" as="geometry" />
        </mxCell>
        <mxCell id="ySjAWbqDDZqkr5jOYy7l-15" value="hnev" style="ellipse;whiteSpace=wrap;html=1;" vertex="1" parent="1">
          <mxGeometry x="80" y="495" width="120" height="80" as="geometry" />
        </mxCell>
        <mxCell id="ySjAWbqDDZqkr5jOYy7l-16" value="&lt;u&gt;id&lt;/u&gt;" style="rhombus;whiteSpace=wrap;html=1;" vertex="1" parent="1">
          <mxGeometry x="640" y="495" width="80" height="80" as="geometry" />
        </mxCell>
        <mxCell id="ySjAWbqDDZqkr5jOYy7l-17" value="jovahagyas" style="ellipse;whiteSpace=wrap;html=1;" vertex="1" parent="1">
          <mxGeometry x="760" y="500" width="120" height="80" as="geometry" />
        </mxCell>
        <mxCell id="ySjAWbqDDZqkr5jOYy7l-18" value="nyelv" style="ellipse;whiteSpace=wrap;html=1;" vertex="1" parent="1">
          <mxGeometry x="920" y="500" width="120" height="80" as="geometry" />
        </mxCell>
        <mxCell id="ySjAWbqDDZqkr5jOYy7l-19" value="kurzusnev" style="ellipse;whiteSpace=wrap;html=1;" vertex="1" parent="1">
          <mxGeometry x="1080" y="500" width="120" height="80" as="geometry" />
        </mxCell>
        <mxCell id="ySjAWbqDDZqkr5jOYy7l-20" value="kredit" style="ellipse;whiteSpace=wrap;html=1;" vertex="1" parent="1">
          <mxGeometry x="1560" y="500" width="120" height="80" as="geometry" />
        </mxCell>
        <mxCell id="ySjAWbqDDZqkr5jOYy7l-21" value="hely" style="ellipse;whiteSpace=wrap;html=1;" vertex="1" parent="1">
          <mxGeometry x="1400" y="500" width="120" height="80" as="geometry" />
        </mxCell>
        <mxCell id="ySjAWbqDDZqkr5jOYy7l-22" value="idopont" style="ellipse;whiteSpace=wrap;html=1;" vertex="1" parent="1">
          <mxGeometry x="1240.5" y="500" width="120" height="80" as="geometry" />
        </mxCell>
        <mxCell id="ySjAWbqDDZqkr5jOYy7l-23" value="oktato" style="ellipse;whiteSpace=wrap;html=1;" vertex="1" parent="1">
          <mxGeometry x="1880" y="500" width="120" height="80" as="geometry" />
        </mxCell>
        <mxCell id="ySjAWbqDDZqkr5jOYy7l-24" value="oraado" style="ellipse;whiteSpace=wrap;html=1;" vertex="1" parent="1">
          <mxGeometry x="1720" y="500" width="120" height="80" as="geometry" />
        </mxCell>
        <mxCell id="ySjAWbqDDZqkr5jOYy7l-25" value="" style="endArrow=none;html=1;rounded=0;entryX=0.5;entryY=1;entryDx=0;entryDy=0;exitX=0.5;exitY=0;exitDx=0;exitDy=0;" edge="1" parent="1" source="ySjAWbqDDZqkr5jOYy7l-3" target="ySjAWbqDDZqkr5jOYy7l-1">
          <mxGeometry width="50" height="50" relative="1" as="geometry">
            <mxPoint x="720" y="290" as="sourcePoint" />
            <mxPoint x="770" y="240" as="targetPoint" />
          </mxGeometry>
        </mxCell>
        <mxCell id="ySjAWbqDDZqkr5jOYy7l-26" value="" style="endArrow=none;html=1;rounded=0;exitX=0.5;exitY=0;exitDx=0;exitDy=0;entryX=0.5;entryY=1;entryDx=0;entryDy=0;" edge="1" parent="1" source="ySjAWbqDDZqkr5jOYy7l-11" target="ySjAWbqDDZqkr5jOYy7l-1">
          <mxGeometry width="50" height="50" relative="1" as="geometry">
            <mxPoint x="700" y="300" as="sourcePoint" />
            <mxPoint x="820" y="150" as="targetPoint" />
          </mxGeometry>
        </mxCell>
        <mxCell id="ySjAWbqDDZqkr5jOYy7l-27" value="" style="endArrow=none;html=1;rounded=0;entryX=0.5;entryY=1;entryDx=0;entryDy=0;exitX=0.5;exitY=0;exitDx=0;exitDy=0;" edge="1" parent="1" source="ySjAWbqDDZqkr5jOYy7l-12" target="ySjAWbqDDZqkr5jOYy7l-1">
          <mxGeometry width="50" height="50" relative="1" as="geometry">
            <mxPoint x="700" y="300" as="sourcePoint" />
            <mxPoint x="750" y="250" as="targetPoint" />
          </mxGeometry>
        </mxCell>
        <mxCell id="ySjAWbqDDZqkr5jOYy7l-28" value="" style="endArrow=none;html=1;rounded=0;entryX=0.5;entryY=0;entryDx=0;entryDy=0;exitX=0.5;exitY=1;exitDx=0;exitDy=0;" edge="1" parent="1" source="ySjAWbqDDZqkr5jOYy7l-1" target="ySjAWbqDDZqkr5jOYy7l-4">
          <mxGeometry width="50" height="50" relative="1" as="geometry">
            <mxPoint x="900" y="260" as="sourcePoint" />
            <mxPoint x="950" y="210" as="targetPoint" />
          </mxGeometry>
        </mxCell>
        <mxCell id="ySjAWbqDDZqkr5jOYy7l-30" value="" style="endArrow=none;html=1;rounded=0;entryX=0.5;entryY=1;entryDx=0;entryDy=0;exitX=0.5;exitY=0;exitDx=0;exitDy=0;" edge="1" parent="1" source="ySjAWbqDDZqkr5jOYy7l-6" target="ySjAWbqDDZqkr5jOYy7l-3">
          <mxGeometry width="50" height="50" relative="1" as="geometry">
            <mxPoint x="290" y="420" as="sourcePoint" />
            <mxPoint x="340" y="370" as="targetPoint" />
          </mxGeometry>
        </mxCell>
        <mxCell id="ySjAWbqDDZqkr5jOYy7l-31" value="" style="endArrow=none;html=1;rounded=0;exitX=0.5;exitY=0;exitDx=0;exitDy=0;entryX=0.5;entryY=1;entryDx=0;entryDy=0;" edge="1" parent="1" source="ySjAWbqDDZqkr5jOYy7l-15" target="ySjAWbqDDZqkr5jOYy7l-6">
          <mxGeometry width="50" height="50" relative="1" as="geometry">
            <mxPoint x="290" y="420" as="sourcePoint" />
            <mxPoint x="340" y="370" as="targetPoint" />
          </mxGeometry>
        </mxCell>
        <mxCell id="ySjAWbqDDZqkr5jOYy7l-32" value="" style="endArrow=none;html=1;rounded=0;exitX=0.5;exitY=0;exitDx=0;exitDy=0;entryX=0.5;entryY=1;entryDx=0;entryDy=0;" edge="1" parent="1" source="ySjAWbqDDZqkr5jOYy7l-14" target="ySjAWbqDDZqkr5jOYy7l-6">
          <mxGeometry width="50" height="50" relative="1" as="geometry">
            <mxPoint x="290" y="420" as="sourcePoint" />
            <mxPoint x="340" y="370" as="targetPoint" />
          </mxGeometry>
        </mxCell>
        <mxCell id="ySjAWbqDDZqkr5jOYy7l-33" value="" style="endArrow=none;html=1;rounded=0;entryX=0.5;entryY=0;entryDx=0;entryDy=0;exitX=0.5;exitY=1;exitDx=0;exitDy=0;" edge="1" parent="1" source="ySjAWbqDDZqkr5jOYy7l-6" target="ySjAWbqDDZqkr5jOYy7l-13">
          <mxGeometry width="50" height="50" relative="1" as="geometry">
            <mxPoint x="290" y="420" as="sourcePoint" />
            <mxPoint x="340" y="370" as="targetPoint" />
          </mxGeometry>
        </mxCell>
        <mxCell id="ySjAWbqDDZqkr5jOYy7l-34" value="" style="endArrow=none;html=1;rounded=0;entryX=0.5;entryY=1;entryDx=0;entryDy=0;exitX=0.5;exitY=0;exitDx=0;exitDy=0;" edge="1" parent="1" source="ySjAWbqDDZqkr5jOYy7l-9" target="ySjAWbqDDZqkr5jOYy7l-4">
          <mxGeometry width="50" height="50" relative="1" as="geometry">
            <mxPoint x="1290" y="360" as="sourcePoint" />
            <mxPoint x="1340" y="310" as="targetPoint" />
          </mxGeometry>
        </mxCell>
        <mxCell id="ySjAWbqDDZqkr5jOYy7l-35" value="" style="endArrow=none;html=1;rounded=0;entryX=0.5;entryY=1;entryDx=0;entryDy=0;exitX=0.5;exitY=0;exitDx=0;exitDy=0;" edge="1" parent="1" source="ySjAWbqDDZqkr5jOYy7l-16" target="ySjAWbqDDZqkr5jOYy7l-9">
          <mxGeometry width="50" height="50" relative="1" as="geometry">
            <mxPoint x="1200" y="460" as="sourcePoint" />
            <mxPoint x="1250" y="410" as="targetPoint" />
          </mxGeometry>
        </mxCell>
        <mxCell id="ySjAWbqDDZqkr5jOYy7l-36" value="" style="endArrow=none;html=1;rounded=0;entryX=0.5;entryY=1;entryDx=0;entryDy=0;exitX=0.5;exitY=0;exitDx=0;exitDy=0;" edge="1" parent="1" source="ySjAWbqDDZqkr5jOYy7l-17" target="ySjAWbqDDZqkr5jOYy7l-9">
          <mxGeometry width="50" height="50" relative="1" as="geometry">
            <mxPoint x="1050" y="460" as="sourcePoint" />
            <mxPoint x="1100" y="410" as="targetPoint" />
          </mxGeometry>
        </mxCell>
        <mxCell id="ySjAWbqDDZqkr5jOYy7l-37" value="" style="endArrow=none;html=1;rounded=0;entryX=0.5;entryY=1;entryDx=0;entryDy=0;exitX=0.5;exitY=0;exitDx=0;exitDy=0;" edge="1" parent="1" source="ySjAWbqDDZqkr5jOYy7l-18" target="ySjAWbqDDZqkr5jOYy7l-9">
          <mxGeometry width="50" height="50" relative="1" as="geometry">
            <mxPoint x="1210" y="470" as="sourcePoint" />
            <mxPoint x="1260" y="420" as="targetPoint" />
          </mxGeometry>
        </mxCell>
        <mxCell id="ySjAWbqDDZqkr5jOYy7l-38" value="" style="endArrow=none;html=1;rounded=0;entryX=0.5;entryY=1;entryDx=0;entryDy=0;exitX=0.5;exitY=0;exitDx=0;exitDy=0;" edge="1" parent="1" source="ySjAWbqDDZqkr5jOYy7l-19" target="ySjAWbqDDZqkr5jOYy7l-9">
          <mxGeometry width="50" height="50" relative="1" as="geometry">
            <mxPoint x="1210" y="470" as="sourcePoint" />
            <mxPoint x="1260" y="420" as="targetPoint" />
          </mxGeometry>
        </mxCell>
        <mxCell id="ySjAWbqDDZqkr5jOYy7l-39" value="" style="endArrow=none;html=1;rounded=0;entryX=0.5;entryY=1;entryDx=0;entryDy=0;exitX=0.5;exitY=0;exitDx=0;exitDy=0;" edge="1" parent="1" source="ySjAWbqDDZqkr5jOYy7l-22" target="ySjAWbqDDZqkr5jOYy7l-9">
          <mxGeometry width="50" height="50" relative="1" as="geometry">
            <mxPoint x="1210" y="470" as="sourcePoint" />
            <mxPoint x="1260" y="420" as="targetPoint" />
          </mxGeometry>
        </mxCell>
        <mxCell id="ySjAWbqDDZqkr5jOYy7l-40" value="" style="endArrow=none;html=1;rounded=0;entryX=0.5;entryY=1;entryDx=0;entryDy=0;exitX=0.5;exitY=0;exitDx=0;exitDy=0;" edge="1" parent="1" source="ySjAWbqDDZqkr5jOYy7l-21" target="ySjAWbqDDZqkr5jOYy7l-9">
          <mxGeometry width="50" height="50" relative="1" as="geometry">
            <mxPoint x="1210" y="470" as="sourcePoint" />
            <mxPoint x="1260" y="420" as="targetPoint" />
          </mxGeometry>
        </mxCell>
        <mxCell id="ySjAWbqDDZqkr5jOYy7l-41" value="" style="endArrow=none;html=1;rounded=0;entryX=0.5;entryY=1;entryDx=0;entryDy=0;exitX=0.5;exitY=0;exitDx=0;exitDy=0;" edge="1" parent="1" source="ySjAWbqDDZqkr5jOYy7l-20" target="ySjAWbqDDZqkr5jOYy7l-9">
          <mxGeometry width="50" height="50" relative="1" as="geometry">
            <mxPoint x="1210" y="470" as="sourcePoint" />
            <mxPoint x="1260" y="420" as="targetPoint" />
          </mxGeometry>
        </mxCell>
        <mxCell id="ySjAWbqDDZqkr5jOYy7l-42" value="" style="endArrow=none;html=1;rounded=0;entryX=0.5;entryY=1;entryDx=0;entryDy=0;exitX=0.5;exitY=0;exitDx=0;exitDy=0;" edge="1" parent="1" source="ySjAWbqDDZqkr5jOYy7l-24" target="ySjAWbqDDZqkr5jOYy7l-9">
          <mxGeometry width="50" height="50" relative="1" as="geometry">
            <mxPoint x="1780.6667073567708" y="490" as="sourcePoint" />
            <mxPoint x="1260" y="420" as="targetPoint" />
          </mxGeometry>
        </mxCell>
        <mxCell id="ySjAWbqDDZqkr5jOYy7l-43" value="" style="endArrow=none;html=1;rounded=0;entryX=0.5;entryY=1;entryDx=0;entryDy=0;exitX=0.5;exitY=0;exitDx=0;exitDy=0;" edge="1" parent="1" source="ySjAWbqDDZqkr5jOYy7l-23" target="ySjAWbqDDZqkr5jOYy7l-9">
          <mxGeometry width="50" height="50" relative="1" as="geometry">
            <mxPoint x="1520" y="490" as="sourcePoint" />
            <mxPoint x="1570" y="440" as="targetPoint" />
          </mxGeometry>
        </mxCell>
        <mxCell id="ySjAWbqDDZqkr5jOYy7l-44" value="" style="rounded=0;whiteSpace=wrap;html=1;" vertex="1" parent="1">
          <mxGeometry x="655" y="300" width="50" height="70" as="geometry" />
        </mxCell>
        <mxCell id="ySjAWbqDDZqkr5jOYy7l-45" value="" style="rounded=0;whiteSpace=wrap;html=1;" vertex="1" parent="1">
          <mxGeometry x="945" y="300" width="50" height="70" as="geometry" />
        </mxCell>
        <mxCell id="ySjAWbqDDZqkr5jOYy7l-46" value="" style="rounded=0;whiteSpace=wrap;html=1;" vertex="1" parent="1">
          <mxGeometry x="115" y="640" width="50" height="70" as="geometry" />
        </mxCell>
        <mxCell id="ySjAWbqDDZqkr5jOYy7l-47" value="" style="rounded=0;whiteSpace=wrap;html=1;" vertex="1" parent="1">
          <mxGeometry x="275" y="640" width="50" height="70" as="geometry" />
        </mxCell>
        <mxCell id="ySjAWbqDDZqkr5jOYy7l-48" value="" style="rounded=0;whiteSpace=wrap;html=1;" vertex="1" parent="1">
          <mxGeometry x="435" y="640" width="50" height="70" as="geometry" />
        </mxCell>
        <mxCell id="ySjAWbqDDZqkr5jOYy7l-49" value="" style="rounded=0;whiteSpace=wrap;html=1;" vertex="1" parent="1">
          <mxGeometry x="795" y="640" width="50" height="70" as="geometry" />
        </mxCell>
        <mxCell id="ySjAWbqDDZqkr5jOYy7l-50" value="" style="rounded=0;whiteSpace=wrap;html=1;" vertex="1" parent="1">
          <mxGeometry x="955" y="640" width="50" height="70" as="geometry" />
        </mxCell>
        <mxCell id="ySjAWbqDDZqkr5jOYy7l-51" value="" style="rounded=0;whiteSpace=wrap;html=1;" vertex="1" parent="1">
          <mxGeometry x="1115" y="640" width="50" height="70" as="geometry" />
        </mxCell>
        <mxCell id="ySjAWbqDDZqkr5jOYy7l-52" value="" style="rounded=0;whiteSpace=wrap;html=1;" vertex="1" parent="1">
          <mxGeometry x="1275.5" y="640" width="50" height="70" as="geometry" />
        </mxCell>
        <mxCell id="ySjAWbqDDZqkr5jOYy7l-53" value="" style="rounded=0;whiteSpace=wrap;html=1;" vertex="1" parent="1">
          <mxGeometry x="1435" y="640" width="50" height="70" as="geometry" />
        </mxCell>
        <mxCell id="ySjAWbqDDZqkr5jOYy7l-54" value="" style="rounded=0;whiteSpace=wrap;html=1;" vertex="1" parent="1">
          <mxGeometry x="1595" y="640" width="50" height="70" as="geometry" />
        </mxCell>
        <mxCell id="ySjAWbqDDZqkr5jOYy7l-55" value="" style="rounded=0;whiteSpace=wrap;html=1;" vertex="1" parent="1">
          <mxGeometry x="1755" y="640" width="50" height="70" as="geometry" />
        </mxCell>
        <mxCell id="ySjAWbqDDZqkr5jOYy7l-56" value="" style="rounded=0;whiteSpace=wrap;html=1;" vertex="1" parent="1">
          <mxGeometry x="1915" y="640" width="50" height="70" as="geometry" />
        </mxCell>
        <mxCell id="ySjAWbqDDZqkr5jOYy7l-57" value="" style="endArrow=none;html=1;rounded=0;entryX=0.5;entryY=1;entryDx=0;entryDy=0;exitX=0.5;exitY=0;exitDx=0;exitDy=0;" edge="1" parent="1" source="ySjAWbqDDZqkr5jOYy7l-46" target="ySjAWbqDDZqkr5jOYy7l-15">
          <mxGeometry width="50" height="50" relative="1" as="geometry">
            <mxPoint x="230" y="640" as="sourcePoint" />
            <mxPoint x="280" y="590" as="targetPoint" />
          </mxGeometry>
        </mxCell>
        <mxCell id="ySjAWbqDDZqkr5jOYy7l-58" value="" style="endArrow=none;html=1;rounded=0;entryX=0.5;entryY=1;entryDx=0;entryDy=0;exitX=0.5;exitY=0;exitDx=0;exitDy=0;" edge="1" parent="1" source="ySjAWbqDDZqkr5jOYy7l-47" target="ySjAWbqDDZqkr5jOYy7l-14">
          <mxGeometry width="50" height="50" relative="1" as="geometry">
            <mxPoint x="230" y="640" as="sourcePoint" />
            <mxPoint x="280" y="590" as="targetPoint" />
          </mxGeometry>
        </mxCell>
        <mxCell id="ySjAWbqDDZqkr5jOYy7l-59" value="" style="endArrow=none;html=1;rounded=0;exitX=0.5;exitY=0;exitDx=0;exitDy=0;entryX=0.5;entryY=1;entryDx=0;entryDy=0;" edge="1" parent="1" source="ySjAWbqDDZqkr5jOYy7l-48" target="ySjAWbqDDZqkr5jOYy7l-13">
          <mxGeometry width="50" height="50" relative="1" as="geometry">
            <mxPoint x="410" y="630" as="sourcePoint" />
            <mxPoint x="480" y="590" as="targetPoint" />
          </mxGeometry>
        </mxCell>
        <mxCell id="ySjAWbqDDZqkr5jOYy7l-61" value="" style="endArrow=none;html=1;rounded=0;entryX=0.5;entryY=1;entryDx=0;entryDy=0;exitX=0.5;exitY=0;exitDx=0;exitDy=0;" edge="1" parent="1" source="ySjAWbqDDZqkr5jOYy7l-49" target="ySjAWbqDDZqkr5jOYy7l-17">
          <mxGeometry width="50" height="50" relative="1" as="geometry">
            <mxPoint x="760" y="610" as="sourcePoint" />
            <mxPoint x="810" y="560" as="targetPoint" />
          </mxGeometry>
        </mxCell>
        <mxCell id="ySjAWbqDDZqkr5jOYy7l-62" value="" style="endArrow=none;html=1;rounded=0;entryX=0.5;entryY=1;entryDx=0;entryDy=0;exitX=0.5;exitY=0;exitDx=0;exitDy=0;" edge="1" parent="1" source="ySjAWbqDDZqkr5jOYy7l-50" target="ySjAWbqDDZqkr5jOYy7l-18">
          <mxGeometry width="50" height="50" relative="1" as="geometry">
            <mxPoint x="760" y="610" as="sourcePoint" />
            <mxPoint x="810" y="560" as="targetPoint" />
          </mxGeometry>
        </mxCell>
        <mxCell id="ySjAWbqDDZqkr5jOYy7l-63" value="" style="endArrow=none;html=1;rounded=0;entryX=0.5;entryY=1;entryDx=0;entryDy=0;exitX=0.5;exitY=0;exitDx=0;exitDy=0;" edge="1" parent="1" source="ySjAWbqDDZqkr5jOYy7l-44" target="ySjAWbqDDZqkr5jOYy7l-11">
          <mxGeometry width="50" height="50" relative="1" as="geometry">
            <mxPoint x="670" y="300" as="sourcePoint" />
            <mxPoint x="720" y="250" as="targetPoint" />
          </mxGeometry>
        </mxCell>
        <mxCell id="ySjAWbqDDZqkr5jOYy7l-64" value="" style="endArrow=none;html=1;rounded=0;entryX=0.5;entryY=1;entryDx=0;entryDy=0;exitX=0.5;exitY=0;exitDx=0;exitDy=0;" edge="1" parent="1" source="ySjAWbqDDZqkr5jOYy7l-45" target="ySjAWbqDDZqkr5jOYy7l-12">
          <mxGeometry width="50" height="50" relative="1" as="geometry">
            <mxPoint x="1070" y="300" as="sourcePoint" />
            <mxPoint x="1120" y="250" as="targetPoint" />
          </mxGeometry>
        </mxCell>
        <mxCell id="ySjAWbqDDZqkr5jOYy7l-65" value="" style="endArrow=none;html=1;rounded=0;entryX=0.5;entryY=1;entryDx=0;entryDy=0;exitX=0.5;exitY=0;exitDx=0;exitDy=0;" edge="1" parent="1" source="ySjAWbqDDZqkr5jOYy7l-51" target="ySjAWbqDDZqkr5jOYy7l-19">
          <mxGeometry width="50" height="50" relative="1" as="geometry">
            <mxPoint x="1160" y="610" as="sourcePoint" />
            <mxPoint x="1210" y="560" as="targetPoint" />
          </mxGeometry>
        </mxCell>
        <mxCell id="ySjAWbqDDZqkr5jOYy7l-66" value="" style="endArrow=none;html=1;rounded=0;entryX=0.5;entryY=1;entryDx=0;entryDy=0;exitX=0.5;exitY=0;exitDx=0;exitDy=0;" edge="1" parent="1" source="ySjAWbqDDZqkr5jOYy7l-52" target="ySjAWbqDDZqkr5jOYy7l-22">
          <mxGeometry width="50" height="50" relative="1" as="geometry">
            <mxPoint x="1160" y="610" as="sourcePoint" />
            <mxPoint x="1210" y="560" as="targetPoint" />
          </mxGeometry>
        </mxCell>
        <mxCell id="ySjAWbqDDZqkr5jOYy7l-67" value="" style="endArrow=none;html=1;rounded=0;entryX=0.5;entryY=1;entryDx=0;entryDy=0;exitX=0.5;exitY=0;exitDx=0;exitDy=0;" edge="1" parent="1" source="ySjAWbqDDZqkr5jOYy7l-53" target="ySjAWbqDDZqkr5jOYy7l-21">
          <mxGeometry width="50" height="50" relative="1" as="geometry">
            <mxPoint x="1440" y="620" as="sourcePoint" />
            <mxPoint x="1490" y="570" as="targetPoint" />
          </mxGeometry>
        </mxCell>
        <mxCell id="ySjAWbqDDZqkr5jOYy7l-68" value="" style="endArrow=none;html=1;rounded=0;entryX=0.5;entryY=1;entryDx=0;entryDy=0;exitX=0.5;exitY=0;exitDx=0;exitDy=0;" edge="1" parent="1" source="ySjAWbqDDZqkr5jOYy7l-54" target="ySjAWbqDDZqkr5jOYy7l-20">
          <mxGeometry width="50" height="50" relative="1" as="geometry">
            <mxPoint x="1680" y="630" as="sourcePoint" />
            <mxPoint x="1730" y="580" as="targetPoint" />
          </mxGeometry>
        </mxCell>
        <mxCell id="ySjAWbqDDZqkr5jOYy7l-69" value="" style="endArrow=none;html=1;rounded=0;entryX=0.5;entryY=1;entryDx=0;entryDy=0;exitX=0.5;exitY=0;exitDx=0;exitDy=0;" edge="1" parent="1" source="ySjAWbqDDZqkr5jOYy7l-55" target="ySjAWbqDDZqkr5jOYy7l-24">
          <mxGeometry width="50" height="50" relative="1" as="geometry">
            <mxPoint x="1680" y="630" as="sourcePoint" />
            <mxPoint x="1730" y="580" as="targetPoint" />
          </mxGeometry>
        </mxCell>
        <mxCell id="ySjAWbqDDZqkr5jOYy7l-70" value="" style="endArrow=none;html=1;rounded=0;entryX=0.5;entryY=1;entryDx=0;entryDy=0;exitX=0.5;exitY=0;exitDx=0;exitDy=0;" edge="1" parent="1" source="ySjAWbqDDZqkr5jOYy7l-56" target="ySjAWbqDDZqkr5jOYy7l-23">
          <mxGeometry width="50" height="50" relative="1" as="geometry">
            <mxPoint x="2000" y="640" as="sourcePoint" />
            <mxPoint x="2050" y="590" as="targetPoint" />
          </mxGeometry>
        </mxCell>
      </root>
    </mxGraphModel>
  </diagram>
</mxfile>
